<mxfile host="app.diagrams.net" modified="2021-06-01T19:10:32.305Z" agent="5.0 (Windows NT 10.0; Win64; x64) AppleWebKit/537.36 (KHTML, like Gecko) Chrome/91.0.4472.77 Safari/537.36" etag="FUa55jQlivjFrb8MrK35" version="14.7.3" type="github">
  <diagram id="k7KGOZoprMe9xYjZrpWk" name="Page-1">
    <mxGraphModel dx="1108" dy="1582" grid="1" gridSize="10" guides="1" tooltips="1" connect="1" arrows="1" fold="1" page="1" pageScale="1" pageWidth="850" pageHeight="1100" math="0" shadow="0">
      <root>
        <mxCell id="0" />
        <mxCell id="1" parent="0" />
        <mxCell id="P7cUduXvQKSD9cYEH8gW-1" value="Actor" style="shape=umlActor;verticalLabelPosition=bottom;verticalAlign=top;html=1;outlineConnect=0;" vertex="1" parent="1">
          <mxGeometry x="180" y="260" width="30" height="60" as="geometry" />
        </mxCell>
        <mxCell id="P7cUduXvQKSD9cYEH8gW-2" value="PID" style="ellipse;whiteSpace=wrap;html=1;" vertex="1" parent="1">
          <mxGeometry x="310" y="180" width="120" height="80" as="geometry" />
        </mxCell>
        <mxCell id="P7cUduXvQKSD9cYEH8gW-3" value="IMC" style="ellipse;whiteSpace=wrap;html=1;" vertex="1" parent="1">
          <mxGeometry x="310" y="360" width="120" height="80" as="geometry" />
        </mxCell>
        <mxCell id="P7cUduXvQKSD9cYEH8gW-5" value="kc(2.35), Ti(0), Td(0)" style="ellipse;whiteSpace=wrap;html=1;" vertex="1" parent="1">
          <mxGeometry x="560" y="-30" width="140" height="90" as="geometry" />
        </mxCell>
        <mxCell id="P7cUduXvQKSD9cYEH8gW-6" value="kc(2.35), Ti(.5), Td(2.76)" style="ellipse;whiteSpace=wrap;html=1;" vertex="1" parent="1">
          <mxGeometry x="560" y="100" width="140" height="90" as="geometry" />
        </mxCell>
        <mxCell id="P7cUduXvQKSD9cYEH8gW-7" value="kc(.62), Ti(.19), Td(0)" style="ellipse;whiteSpace=wrap;html=1;" vertex="1" parent="1">
          <mxGeometry x="560" y="230" width="140" height="90" as="geometry" />
        </mxCell>
        <mxCell id="P7cUduXvQKSD9cYEH8gW-8" value="A = 1.5" style="ellipse;whiteSpace=wrap;html=1;" vertex="1" parent="1">
          <mxGeometry x="560" y="360" width="140" height="90" as="geometry" />
        </mxCell>
        <mxCell id="P7cUduXvQKSD9cYEH8gW-10" value="A = 3" style="ellipse;whiteSpace=wrap;html=1;" vertex="1" parent="1">
          <mxGeometry x="560" y="480" width="140" height="90" as="geometry" />
        </mxCell>
        <mxCell id="P7cUduXvQKSD9cYEH8gW-11" value="A = 6" style="ellipse;whiteSpace=wrap;html=1;" vertex="1" parent="1">
          <mxGeometry x="560" y="600" width="140" height="90" as="geometry" />
        </mxCell>
        <mxCell id="P7cUduXvQKSD9cYEH8gW-12" value="Rise Time - 2.45" style="ellipse;whiteSpace=wrap;html=1;" vertex="1" parent="1">
          <mxGeometry x="810" y="-520" width="120" height="80" as="geometry" />
        </mxCell>
        <mxCell id="P7cUduXvQKSD9cYEH8gW-13" value="Settling Time - 18.1" style="ellipse;whiteSpace=wrap;html=1;" vertex="1" parent="1">
          <mxGeometry x="810" y="-420" width="120" height="80" as="geometry" />
        </mxCell>
        <mxCell id="P7cUduXvQKSD9cYEH8gW-14" value="Overshoot - 28.7 %" style="ellipse;whiteSpace=wrap;html=1;" vertex="1" parent="1">
          <mxGeometry x="810" y="-320" width="120" height="80" as="geometry" />
        </mxCell>
        <mxCell id="P7cUduXvQKSD9cYEH8gW-15" value="Rise Time - 3.13" style="ellipse;whiteSpace=wrap;html=1;" vertex="1" parent="1">
          <mxGeometry x="810" y="-220" width="120" height="80" as="geometry" />
        </mxCell>
        <mxCell id="P7cUduXvQKSD9cYEH8gW-16" value="Settling Time - 9.61" style="ellipse;whiteSpace=wrap;html=1;" vertex="1" parent="1">
          <mxGeometry x="810" y="-120" width="120" height="80" as="geometry" />
        </mxCell>
        <mxCell id="P7cUduXvQKSD9cYEH8gW-18" value="Overshoot - 6.37%" style="ellipse;whiteSpace=wrap;html=1;" vertex="1" parent="1">
          <mxGeometry x="810" y="-20" width="120" height="80" as="geometry" />
        </mxCell>
        <mxCell id="P7cUduXvQKSD9cYEH8gW-19" value="Rise Time - 6.84" style="ellipse;whiteSpace=wrap;html=1;" vertex="1" parent="1">
          <mxGeometry x="810" y="80" width="120" height="80" as="geometry" />
        </mxCell>
        <mxCell id="P7cUduXvQKSD9cYEH8gW-20" value="Settling Time - 20.2" style="ellipse;whiteSpace=wrap;html=1;" vertex="1" parent="1">
          <mxGeometry x="810" y="180" width="120" height="80" as="geometry" />
        </mxCell>
        <mxCell id="P7cUduXvQKSD9cYEH8gW-21" value="Overshoot - 5.94%" style="ellipse;whiteSpace=wrap;html=1;" vertex="1" parent="1">
          <mxGeometry x="810" y="280" width="120" height="80" as="geometry" />
        </mxCell>
        <mxCell id="P7cUduXvQKSD9cYEH8gW-22" value="Rise Time - 3.87" style="ellipse;whiteSpace=wrap;html=1;" vertex="1" parent="1">
          <mxGeometry x="810" y="380" width="120" height="80" as="geometry" />
        </mxCell>
        <mxCell id="P7cUduXvQKSD9cYEH8gW-23" value="Settling Time - 7.34" style="ellipse;whiteSpace=wrap;html=1;" vertex="1" parent="1">
          <mxGeometry x="810" y="485" width="120" height="80" as="geometry" />
        </mxCell>
        <mxCell id="P7cUduXvQKSD9cYEH8gW-24" value="Overshoot - -11.64%" style="ellipse;whiteSpace=wrap;html=1;" vertex="1" parent="1">
          <mxGeometry x="810" y="590" width="120" height="80" as="geometry" />
        </mxCell>
        <mxCell id="P7cUduXvQKSD9cYEH8gW-25" value="Rise Time - 4.63" style="ellipse;whiteSpace=wrap;html=1;" vertex="1" parent="1">
          <mxGeometry x="810" y="690" width="120" height="80" as="geometry" />
        </mxCell>
        <mxCell id="P7cUduXvQKSD9cYEH8gW-26" value="Settling Time - 8.98" style="ellipse;whiteSpace=wrap;html=1;" vertex="1" parent="1">
          <mxGeometry x="810" y="790" width="120" height="80" as="geometry" />
        </mxCell>
        <mxCell id="P7cUduXvQKSD9cYEH8gW-27" value="Overshoot - -9.84%" style="ellipse;whiteSpace=wrap;html=1;" vertex="1" parent="1">
          <mxGeometry x="810" y="890" width="120" height="80" as="geometry" />
        </mxCell>
        <mxCell id="P7cUduXvQKSD9cYEH8gW-28" value="Rise Time - 5.76" style="ellipse;whiteSpace=wrap;html=1;" vertex="1" parent="1">
          <mxGeometry x="810" y="990" width="120" height="80" as="geometry" />
        </mxCell>
        <mxCell id="P7cUduXvQKSD9cYEH8gW-29" value="Settling Time - 10.45" style="ellipse;whiteSpace=wrap;html=1;" vertex="1" parent="1">
          <mxGeometry x="810" y="1090" width="120" height="80" as="geometry" />
        </mxCell>
        <mxCell id="P7cUduXvQKSD9cYEH8gW-30" value="Overshoot - -7.13%" style="ellipse;whiteSpace=wrap;html=1;" vertex="1" parent="1">
          <mxGeometry x="810" y="1190" width="120" height="80" as="geometry" />
        </mxCell>
        <mxCell id="P7cUduXvQKSD9cYEH8gW-31" value="" style="endArrow=classic;html=1;exitX=1;exitY=0.3333333333333333;exitDx=0;exitDy=0;exitPerimeter=0;entryX=0;entryY=0.5;entryDx=0;entryDy=0;" edge="1" parent="1" source="P7cUduXvQKSD9cYEH8gW-1" target="P7cUduXvQKSD9cYEH8gW-2">
          <mxGeometry width="50" height="50" relative="1" as="geometry">
            <mxPoint x="240" y="260" as="sourcePoint" />
            <mxPoint x="290" y="210" as="targetPoint" />
          </mxGeometry>
        </mxCell>
        <mxCell id="P7cUduXvQKSD9cYEH8gW-32" value="" style="endArrow=classic;html=1;exitX=1;exitY=0.3333333333333333;exitDx=0;exitDy=0;exitPerimeter=0;entryX=0;entryY=0.5;entryDx=0;entryDy=0;" edge="1" parent="1" source="P7cUduXvQKSD9cYEH8gW-1" target="P7cUduXvQKSD9cYEH8gW-3">
          <mxGeometry width="50" height="50" relative="1" as="geometry">
            <mxPoint x="260" y="340" as="sourcePoint" />
            <mxPoint x="310" y="290" as="targetPoint" />
          </mxGeometry>
        </mxCell>
        <mxCell id="P7cUduXvQKSD9cYEH8gW-33" value="" style="endArrow=classic;html=1;entryX=0;entryY=0.5;entryDx=0;entryDy=0;exitX=1;exitY=0.5;exitDx=0;exitDy=0;" edge="1" parent="1" source="P7cUduXvQKSD9cYEH8gW-2" target="P7cUduXvQKSD9cYEH8gW-5">
          <mxGeometry width="50" height="50" relative="1" as="geometry">
            <mxPoint x="450" y="160" as="sourcePoint" />
            <mxPoint x="500" y="110" as="targetPoint" />
          </mxGeometry>
        </mxCell>
        <mxCell id="P7cUduXvQKSD9cYEH8gW-34" value="" style="endArrow=classic;html=1;entryX=0;entryY=0.5;entryDx=0;entryDy=0;exitX=1;exitY=0.5;exitDx=0;exitDy=0;" edge="1" parent="1" source="P7cUduXvQKSD9cYEH8gW-2" target="P7cUduXvQKSD9cYEH8gW-6">
          <mxGeometry width="50" height="50" relative="1" as="geometry">
            <mxPoint x="450" y="230" as="sourcePoint" />
            <mxPoint x="500" y="180" as="targetPoint" />
          </mxGeometry>
        </mxCell>
        <mxCell id="P7cUduXvQKSD9cYEH8gW-35" value="" style="endArrow=classic;html=1;entryX=0;entryY=0.5;entryDx=0;entryDy=0;exitX=1;exitY=0.5;exitDx=0;exitDy=0;" edge="1" parent="1" source="P7cUduXvQKSD9cYEH8gW-2" target="P7cUduXvQKSD9cYEH8gW-7">
          <mxGeometry width="50" height="50" relative="1" as="geometry">
            <mxPoint x="470" y="300" as="sourcePoint" />
            <mxPoint x="520" y="250" as="targetPoint" />
          </mxGeometry>
        </mxCell>
        <mxCell id="P7cUduXvQKSD9cYEH8gW-36" value="" style="endArrow=classic;html=1;exitX=1;exitY=0.5;exitDx=0;exitDy=0;entryX=0;entryY=0.5;entryDx=0;entryDy=0;" edge="1" parent="1" source="P7cUduXvQKSD9cYEH8gW-3" target="P7cUduXvQKSD9cYEH8gW-8">
          <mxGeometry width="50" height="50" relative="1" as="geometry">
            <mxPoint x="450" y="370" as="sourcePoint" />
            <mxPoint x="500" y="320" as="targetPoint" />
          </mxGeometry>
        </mxCell>
        <mxCell id="P7cUduXvQKSD9cYEH8gW-37" value="" style="endArrow=classic;html=1;exitX=1;exitY=0.5;exitDx=0;exitDy=0;entryX=0;entryY=0.5;entryDx=0;entryDy=0;" edge="1" parent="1" source="P7cUduXvQKSD9cYEH8gW-3" target="P7cUduXvQKSD9cYEH8gW-10">
          <mxGeometry width="50" height="50" relative="1" as="geometry">
            <mxPoint x="470" y="420" as="sourcePoint" />
            <mxPoint x="520" y="370" as="targetPoint" />
          </mxGeometry>
        </mxCell>
        <mxCell id="P7cUduXvQKSD9cYEH8gW-38" value="" style="endArrow=classic;html=1;exitX=1;exitY=0.5;exitDx=0;exitDy=0;entryX=0;entryY=0.5;entryDx=0;entryDy=0;" edge="1" parent="1" source="P7cUduXvQKSD9cYEH8gW-3" target="P7cUduXvQKSD9cYEH8gW-11">
          <mxGeometry width="50" height="50" relative="1" as="geometry">
            <mxPoint x="460" y="490" as="sourcePoint" />
            <mxPoint x="510" y="440" as="targetPoint" />
          </mxGeometry>
        </mxCell>
        <mxCell id="P7cUduXvQKSD9cYEH8gW-39" value="" style="endArrow=classic;html=1;entryX=-0.008;entryY=0.613;entryDx=0;entryDy=0;entryPerimeter=0;exitX=1;exitY=0.5;exitDx=0;exitDy=0;" edge="1" parent="1" source="P7cUduXvQKSD9cYEH8gW-5" target="P7cUduXvQKSD9cYEH8gW-14">
          <mxGeometry width="50" height="50" relative="1" as="geometry">
            <mxPoint x="610" y="-180" as="sourcePoint" />
            <mxPoint x="660" y="-230" as="targetPoint" />
          </mxGeometry>
        </mxCell>
        <mxCell id="P7cUduXvQKSD9cYEH8gW-40" value="" style="endArrow=classic;html=1;exitX=0.993;exitY=0.356;exitDx=0;exitDy=0;exitPerimeter=0;entryX=0;entryY=0.5;entryDx=0;entryDy=0;" edge="1" parent="1" source="P7cUduXvQKSD9cYEH8gW-6" target="P7cUduXvQKSD9cYEH8gW-15">
          <mxGeometry width="50" height="50" relative="1" as="geometry">
            <mxPoint x="660" y="-170" as="sourcePoint" />
            <mxPoint x="710" y="-220" as="targetPoint" />
          </mxGeometry>
        </mxCell>
        <mxCell id="P7cUduXvQKSD9cYEH8gW-41" value="" style="endArrow=classic;html=1;entryX=0;entryY=0.5;entryDx=0;entryDy=0;exitX=1.007;exitY=0.389;exitDx=0;exitDy=0;exitPerimeter=0;" edge="1" parent="1" source="P7cUduXvQKSD9cYEH8gW-6" target="P7cUduXvQKSD9cYEH8gW-18">
          <mxGeometry width="50" height="50" relative="1" as="geometry">
            <mxPoint x="680" y="-110" as="sourcePoint" />
            <mxPoint x="730" y="-160" as="targetPoint" />
          </mxGeometry>
        </mxCell>
        <mxCell id="P7cUduXvQKSD9cYEH8gW-42" value="" style="endArrow=classic;html=1;entryX=0;entryY=0.5;entryDx=0;entryDy=0;exitX=1;exitY=0.5;exitDx=0;exitDy=0;" edge="1" parent="1" source="P7cUduXvQKSD9cYEH8gW-7" target="P7cUduXvQKSD9cYEH8gW-19">
          <mxGeometry width="50" height="50" relative="1" as="geometry">
            <mxPoint x="690" y="-60" as="sourcePoint" />
            <mxPoint x="740" y="-110" as="targetPoint" />
          </mxGeometry>
        </mxCell>
        <mxCell id="P7cUduXvQKSD9cYEH8gW-43" value="" style="endArrow=classic;html=1;entryX=0;entryY=0.5;entryDx=0;entryDy=0;exitX=1.021;exitY=0.411;exitDx=0;exitDy=0;exitPerimeter=0;" edge="1" parent="1" source="P7cUduXvQKSD9cYEH8gW-6" target="P7cUduXvQKSD9cYEH8gW-16">
          <mxGeometry width="50" height="50" relative="1" as="geometry">
            <mxPoint x="730" y="-190" as="sourcePoint" />
            <mxPoint x="780" y="-240" as="targetPoint" />
          </mxGeometry>
        </mxCell>
        <mxCell id="P7cUduXvQKSD9cYEH8gW-44" value="" style="endArrow=classic;html=1;entryX=-0.008;entryY=0.375;entryDx=0;entryDy=0;entryPerimeter=0;exitX=1;exitY=0.5;exitDx=0;exitDy=0;" edge="1" parent="1" source="P7cUduXvQKSD9cYEH8gW-7" target="P7cUduXvQKSD9cYEH8gW-20">
          <mxGeometry width="50" height="50" relative="1" as="geometry">
            <mxPoint x="720" y="10" as="sourcePoint" />
            <mxPoint x="770" y="-40" as="targetPoint" />
          </mxGeometry>
        </mxCell>
        <mxCell id="P7cUduXvQKSD9cYEH8gW-45" value="" style="endArrow=classic;html=1;entryX=0;entryY=0.5;entryDx=0;entryDy=0;exitX=1;exitY=0.5;exitDx=0;exitDy=0;" edge="1" parent="1" source="P7cUduXvQKSD9cYEH8gW-7" target="P7cUduXvQKSD9cYEH8gW-21">
          <mxGeometry width="50" height="50" relative="1" as="geometry">
            <mxPoint x="700" y="70" as="sourcePoint" />
            <mxPoint x="750" y="20" as="targetPoint" />
          </mxGeometry>
        </mxCell>
        <mxCell id="P7cUduXvQKSD9cYEH8gW-46" value="" style="endArrow=classic;html=1;entryX=0;entryY=0.5;entryDx=0;entryDy=0;exitX=1;exitY=0.5;exitDx=0;exitDy=0;" edge="1" parent="1" source="P7cUduXvQKSD9cYEH8gW-8" target="P7cUduXvQKSD9cYEH8gW-22">
          <mxGeometry width="50" height="50" relative="1" as="geometry">
            <mxPoint x="710" y="120" as="sourcePoint" />
            <mxPoint x="760" y="70" as="targetPoint" />
          </mxGeometry>
        </mxCell>
        <mxCell id="P7cUduXvQKSD9cYEH8gW-49" value="" style="endArrow=classic;html=1;entryX=0;entryY=0.5;entryDx=0;entryDy=0;exitX=1;exitY=0.5;exitDx=0;exitDy=0;" edge="1" parent="1" source="P7cUduXvQKSD9cYEH8gW-8" target="P7cUduXvQKSD9cYEH8gW-23">
          <mxGeometry width="50" height="50" relative="1" as="geometry">
            <mxPoint x="730" y="190" as="sourcePoint" />
            <mxPoint x="780" y="140" as="targetPoint" />
          </mxGeometry>
        </mxCell>
        <mxCell id="P7cUduXvQKSD9cYEH8gW-50" value="" style="endArrow=classic;html=1;entryX=0;entryY=0.5;entryDx=0;entryDy=0;exitX=1;exitY=0.5;exitDx=0;exitDy=0;" edge="1" parent="1" source="P7cUduXvQKSD9cYEH8gW-8" target="P7cUduXvQKSD9cYEH8gW-24">
          <mxGeometry width="50" height="50" relative="1" as="geometry">
            <mxPoint x="720" y="270" as="sourcePoint" />
            <mxPoint x="770" y="220" as="targetPoint" />
          </mxGeometry>
        </mxCell>
        <mxCell id="P7cUduXvQKSD9cYEH8gW-51" value="" style="endArrow=classic;html=1;entryX=0;entryY=0.5;entryDx=0;entryDy=0;exitX=1;exitY=0.5;exitDx=0;exitDy=0;" edge="1" parent="1" source="P7cUduXvQKSD9cYEH8gW-10" target="P7cUduXvQKSD9cYEH8gW-25">
          <mxGeometry width="50" height="50" relative="1" as="geometry">
            <mxPoint x="710" y="340" as="sourcePoint" />
            <mxPoint x="760" y="290" as="targetPoint" />
          </mxGeometry>
        </mxCell>
        <mxCell id="P7cUduXvQKSD9cYEH8gW-52" value="" style="endArrow=classic;html=1;entryX=0;entryY=0.5;entryDx=0;entryDy=0;exitX=1;exitY=0.5;exitDx=0;exitDy=0;" edge="1" parent="1" source="P7cUduXvQKSD9cYEH8gW-10" target="P7cUduXvQKSD9cYEH8gW-26">
          <mxGeometry width="50" height="50" relative="1" as="geometry">
            <mxPoint x="720" y="390" as="sourcePoint" />
            <mxPoint x="770" y="340" as="targetPoint" />
          </mxGeometry>
        </mxCell>
        <mxCell id="P7cUduXvQKSD9cYEH8gW-54" value="" style="endArrow=classic;html=1;entryX=0;entryY=0.5;entryDx=0;entryDy=0;exitX=1;exitY=0.5;exitDx=0;exitDy=0;" edge="1" parent="1" source="P7cUduXvQKSD9cYEH8gW-11" target="P7cUduXvQKSD9cYEH8gW-30">
          <mxGeometry width="50" height="50" relative="1" as="geometry">
            <mxPoint x="690" y="710" as="sourcePoint" />
            <mxPoint x="740" y="760" as="targetPoint" />
          </mxGeometry>
        </mxCell>
        <mxCell id="P7cUduXvQKSD9cYEH8gW-55" value="" style="endArrow=classic;html=1;entryX=0.017;entryY=0.638;entryDx=0;entryDy=0;entryPerimeter=0;" edge="1" parent="1" target="P7cUduXvQKSD9cYEH8gW-29">
          <mxGeometry width="50" height="50" relative="1" as="geometry">
            <mxPoint x="700" y="650" as="sourcePoint" />
            <mxPoint x="770" y="610" as="targetPoint" />
          </mxGeometry>
        </mxCell>
        <mxCell id="P7cUduXvQKSD9cYEH8gW-56" value="" style="endArrow=classic;html=1;entryX=0.025;entryY=0.688;entryDx=0;entryDy=0;entryPerimeter=0;exitX=1;exitY=0.5;exitDx=0;exitDy=0;" edge="1" parent="1" source="P7cUduXvQKSD9cYEH8gW-11" target="P7cUduXvQKSD9cYEH8gW-28">
          <mxGeometry width="50" height="50" relative="1" as="geometry">
            <mxPoint x="700" y="620" as="sourcePoint" />
            <mxPoint x="750" y="570" as="targetPoint" />
          </mxGeometry>
        </mxCell>
        <mxCell id="P7cUduXvQKSD9cYEH8gW-57" value="" style="endArrow=classic;html=1;exitX=1;exitY=0.5;exitDx=0;exitDy=0;" edge="1" parent="1" source="P7cUduXvQKSD9cYEH8gW-10">
          <mxGeometry width="50" height="50" relative="1" as="geometry">
            <mxPoint x="720" y="560" as="sourcePoint" />
            <mxPoint x="810" y="920" as="targetPoint" />
          </mxGeometry>
        </mxCell>
        <mxCell id="P7cUduXvQKSD9cYEH8gW-58" value="" style="endArrow=classic;html=1;entryX=0;entryY=0.5;entryDx=0;entryDy=0;exitX=1;exitY=0.5;exitDx=0;exitDy=0;" edge="1" parent="1" source="P7cUduXvQKSD9cYEH8gW-5" target="P7cUduXvQKSD9cYEH8gW-12">
          <mxGeometry width="50" height="50" relative="1" as="geometry">
            <mxPoint x="620" y="-230" as="sourcePoint" />
            <mxPoint x="670" y="-280" as="targetPoint" />
          </mxGeometry>
        </mxCell>
        <mxCell id="P7cUduXvQKSD9cYEH8gW-59" value="" style="endArrow=classic;html=1;exitX=1;exitY=0.5;exitDx=0;exitDy=0;entryX=0;entryY=0.5;entryDx=0;entryDy=0;" edge="1" parent="1" source="P7cUduXvQKSD9cYEH8gW-5" target="P7cUduXvQKSD9cYEH8gW-13">
          <mxGeometry width="50" height="50" relative="1" as="geometry">
            <mxPoint x="690" y="-220" as="sourcePoint" />
            <mxPoint x="740" y="-270" as="targetPoint" />
          </mxGeometry>
        </mxCell>
      </root>
    </mxGraphModel>
  </diagram>
</mxfile>
